<?xml version="1.0" encoding="UTF-8" standalone="no"?><!DOCTYPE svg PUBLIC "-//W3C//DTD SVG 1.1//EN" "http://www.w3.org/Graphics/SVG/1.1/DTD/svg11.dtd"><svg width="100%" height="100%" viewBox="0 0 2483 2042" version="1.1" xmlns="http://www.w3.org/2000/svg" xmlns:xlink="http://www.w3.org/1999/xlink" xml:space="preserve" xmlns:serif="http://www.serif.com/" style="fill-rule:evenodd;clip-rule:evenodd;"><rect x="0" y="0" width="2484.38" height="2041.67" style="fill:#fff;"/><g><clipPath id="_clip1"><rect x="0" y="0" width="2484" height="3512.5"/></clipPath><g clip-path="url(#_clip1)"><rect x="0" y="200" width="2484.38" height="3312.5" style="fill:#f5f5f5;"/><path d="M2009.38,100c-0,-4.104 0.4,-8.168 1.201,-12.193c0.8,-4.025 1.986,-7.933 3.556,-11.725c1.571,-3.791 3.496,-7.393 5.776,-10.805c2.28,-3.412 4.871,-6.569 7.773,-9.471c2.902,-2.902 6.059,-5.493 9.471,-7.773c3.412,-2.28 7.013,-4.205 10.805,-5.775c3.791,-1.571 7.7,-2.756 11.724,-3.557c4.026,-0.801 8.09,-1.201 12.194,-1.201l250,-0c4.104,-0 8.168,0.4 12.193,1.201c4.025,0.801 7.933,1.986 11.724,3.557c3.792,1.57 7.394,3.495 10.806,5.775c3.412,2.28 6.569,4.871 9.471,7.773c2.902,2.902 5.493,6.059 7.773,9.471c2.279,3.412 4.205,7.014 5.775,10.805c1.571,3.792 2.756,7.7 3.557,11.725c0.8,4.025 1.201,8.089 1.201,12.193c-0,4.104 -0.401,8.168 -1.201,12.193c-0.801,4.025 -1.986,7.933 -3.557,11.725c-1.57,3.791 -3.496,7.393 -5.775,10.805c-2.28,3.412 -4.871,6.569 -7.773,9.471c-2.902,2.902 -6.059,5.493 -9.471,7.773c-3.412,2.28 -7.014,4.205 -10.806,5.775c-3.791,1.571 -7.699,2.756 -11.724,3.557c-4.025,0.801 -8.089,1.201 -12.193,1.201l-250,-0c-4.104,-0 -8.168,-0.4 -12.194,-1.201c-4.024,-0.801 -7.933,-1.986 -11.724,-3.557c-3.792,-1.57 -7.393,-3.495 -10.805,-5.775c-3.412,-2.28 -6.569,-4.871 -9.471,-7.773c-2.902,-2.902 -5.493,-6.059 -7.773,-9.471c-2.28,-3.412 -4.205,-7.014 -5.776,-10.805c-1.57,-3.792 -2.756,-7.7 -3.556,-11.725c-0.801,-4.025 -1.201,-8.089 -1.201,-12.193Z" style="fill:#3b82f6;fill-rule:nonzero;"/><path d="M100,800l-0,-262.5c-0,-1.658 0.317,-3.252 0.952,-4.784c0.634,-1.531 1.537,-2.883 2.709,-4.055c1.172,-1.172 2.524,-2.075 4.055,-2.71c1.532,-0.634 3.126,-0.951 4.784,-0.951l256.25,-0c1.658,-0 3.252,0.317 4.783,0.951c1.532,0.635 2.884,1.538 4.056,2.71c1.172,1.172 2.075,2.524 2.709,4.055c0.635,1.532 0.952,3.126 0.952,4.784l-0,262.5c-0,1.658 -0.317,3.252 -0.952,4.783c-0.634,1.532 -1.537,2.884 -2.709,4.056c-1.172,1.172 -2.524,2.075 -4.056,2.709c-1.531,0.635 -3.125,0.952 -4.783,0.952l-256.25,-0c-1.658,-0 -3.252,-0.317 -4.784,-0.952c-1.531,-0.634 -2.883,-1.537 -4.055,-2.709c-1.172,-1.172 -2.075,-2.524 -2.709,-4.056c-0.635,-1.531 -0.952,-3.125 -0.952,-4.783Z" style="fill:#3b82f6;fill-rule:nonzero;"/><path d="M303.125,625c-0,4.104 -0.4,8.168 -1.201,12.193c-0.801,4.025 -1.986,7.933 -3.557,11.725c-1.57,3.791 -3.495,7.393 -5.775,10.805c-2.28,3.412 -4.871,6.569 -7.773,9.471c-2.902,2.902 -6.059,5.493 -9.471,7.773c-3.412,2.28 -7.014,4.205 -10.805,5.775c-3.792,1.571 -7.7,2.756 -11.725,3.557c-4.025,0.801 -8.089,1.201 -12.193,1.201c-4.104,-0 -8.168,-0.4 -12.193,-1.201c-4.025,-0.801 -7.933,-1.986 -11.725,-3.557c-3.791,-1.57 -7.393,-3.495 -10.805,-5.775c-3.412,-2.28 -6.569,-4.871 -9.471,-7.773c-2.902,-2.902 -5.493,-6.059 -7.773,-9.471c-2.28,-3.412 -4.205,-7.014 -5.775,-10.805c-1.571,-3.792 -2.756,-7.7 -3.557,-11.725c-0.801,-4.025 -1.201,-8.089 -1.201,-12.193c-0,-4.104 0.4,-8.168 1.201,-12.193c0.801,-4.025 1.986,-7.933 3.557,-11.725c1.57,-3.791 3.495,-7.393 5.775,-10.805c2.28,-3.412 4.871,-6.569 7.773,-9.471c2.902,-2.902 6.059,-5.493 9.471,-7.773c3.412,-2.28 7.014,-4.205 10.805,-5.776c3.792,-1.57 7.7,-2.755 11.725,-3.556c4.025,-0.801 8.089,-1.201 12.193,-1.201c4.104,-0 8.168,0.4 12.193,1.201c4.025,0.801 7.933,1.986 11.725,3.556c3.791,1.571 7.393,3.496 10.805,5.776c3.412,2.28 6.569,4.871 9.471,7.773c2.902,2.902 5.493,6.059 7.773,9.471c2.28,3.412 4.205,7.014 5.775,10.805c1.571,3.792 2.756,7.7 3.557,11.725c0.801,4.025 1.201,8.089 1.201,12.193Z" style="fill:#fff;fill-rule:nonzero;"/><path d="M431.25,800l-0,-262.5c-0,-1.658 0.317,-3.252 0.951,-4.784c0.635,-1.531 1.538,-2.883 2.71,-4.055c1.172,-1.172 2.524,-2.075 4.055,-2.71c1.532,-0.634 3.126,-0.951 4.784,-0.951l256.25,-0c1.658,-0 3.252,0.317 4.783,0.951c1.532,0.635 2.884,1.538 4.056,2.71c1.172,1.172 2.075,2.524 2.709,4.055c0.635,1.532 0.952,3.126 0.952,4.784l-0,262.5c-0,1.658 -0.317,3.252 -0.952,4.783c-0.634,1.532 -1.537,2.884 -2.709,4.056c-1.172,1.172 -2.524,2.075 -4.056,2.709c-1.531,0.635 -3.125,0.952 -4.783,0.952l-256.25,-0c-1.658,-0 -3.252,-0.317 -4.784,-0.952c-1.531,-0.634 -2.883,-1.537 -4.055,-2.709c-1.172,-1.172 -2.075,-2.524 -2.71,-4.056c-0.634,-1.531 -0.951,-3.125 -0.951,-4.783Z" style="fill:#3b82f6;fill-rule:nonzero;"/><path d="M634.375,625c-0,4.104 -0.4,8.168 -1.201,12.193c-0.801,4.025 -1.986,7.933 -3.557,11.725c-1.57,3.791 -3.495,7.393 -5.775,10.805c-2.28,3.412 -4.871,6.569 -7.773,9.471c-2.902,2.902 -6.059,5.493 -9.471,7.773c-3.412,2.28 -7.014,4.205 -10.805,5.775c-3.792,1.571 -7.7,2.756 -11.725,3.557c-4.025,0.801 -8.089,1.201 -12.193,1.201c-4.104,-0 -8.168,-0.4 -12.193,-1.201c-4.025,-0.801 -7.933,-1.986 -11.725,-3.557c-3.791,-1.57 -7.393,-3.495 -10.805,-5.775c-3.412,-2.28 -6.569,-4.871 -9.471,-7.773c-2.902,-2.902 -5.493,-6.059 -7.773,-9.471c-2.28,-3.412 -4.205,-7.014 -5.776,-10.805c-1.57,-3.792 -2.756,-7.7 -3.556,-11.725c-0.801,-4.025 -1.201,-8.089 -1.201,-12.193c-0,-4.104 0.4,-8.168 1.201,-12.193c0.8,-4.025 1.986,-7.933 3.556,-11.725c1.571,-3.791 3.496,-7.393 5.776,-10.805c2.28,-3.412 4.871,-6.569 7.773,-9.471c2.902,-2.902 6.059,-5.493 9.471,-7.773c3.412,-2.28 7.014,-4.205 10.805,-5.776c3.792,-1.57 7.7,-2.755 11.725,-3.556c4.025,-0.801 8.089,-1.201 12.193,-1.201c4.104,-0 8.168,0.4 12.193,1.201c4.025,0.801 7.933,1.986 11.725,3.556c3.791,1.571 7.393,3.496 10.805,5.776c3.412,2.28 6.569,4.871 9.471,7.773c2.902,2.902 5.493,6.059 7.773,9.471c2.28,3.412 4.205,7.014 5.775,10.805c1.571,3.792 2.756,7.7 3.557,11.725c0.801,4.025 1.201,8.089 1.201,12.193Z" style="fill:#fff;fill-rule:nonzero;"/><path d="M100,1000l-0,-75c-0,-1.658 0.317,-3.252 0.952,-4.784c0.634,-1.531 1.537,-2.883 2.709,-4.055c1.172,-1.172 2.524,-2.075 4.055,-2.71c1.532,-0.634 3.126,-0.951 4.784,-0.951l350,-0c1.658,-0 3.252,0.317 4.783,0.951c1.532,0.635 2.884,1.538 4.056,2.71c1.172,1.172 2.075,2.524 2.709,4.055c0.635,1.532 0.952,3.126 0.952,4.784l-0,75c-0,1.658 -0.317,3.252 -0.952,4.783c-0.634,1.532 -1.537,2.884 -2.709,4.056c-1.172,1.172 -2.524,2.075 -4.056,2.709c-1.531,0.635 -3.125,0.952 -4.783,0.952l-350,-0c-1.658,-0 -3.252,-0.317 -4.784,-0.952c-1.531,-0.634 -2.883,-1.537 -4.055,-2.709c-1.172,-1.172 -2.075,-2.524 -2.709,-4.056c-0.635,-1.531 -0.952,-3.125 -0.952,-4.783Z" style="fill:#a3a3a3;fill-rule:nonzero;"/><path d="M500,1000l-0,-75c-0,-1.658 0.317,-3.252 0.951,-4.784c0.635,-1.531 1.538,-2.883 2.71,-4.055c1.172,-1.172 2.524,-2.075 4.055,-2.71c1.532,-0.634 3.126,-0.951 4.784,-0.951l290.625,-0c1.658,-0 3.252,0.317 4.783,0.951c1.532,0.635 2.884,1.538 4.056,2.71c1.172,1.172 2.075,2.524 2.709,4.055c0.635,1.532 0.952,3.126 0.952,4.784l-0,75c-0,1.658 -0.317,3.252 -0.952,4.783c-0.634,1.532 -1.537,2.884 -2.709,4.056c-1.172,1.172 -2.524,2.075 -4.056,2.709c-1.531,0.635 -3.125,0.952 -4.783,0.952l-290.625,-0c-1.658,-0 -3.252,-0.317 -4.784,-0.952c-1.531,-0.634 -2.883,-1.537 -4.055,-2.709c-1.172,-1.172 -2.075,-2.524 -2.71,-4.056c-0.634,-1.531 -0.951,-3.125 -0.951,-4.783Z" style="fill:#a3a3a3;fill-rule:nonzero;"/><path d="M840.625,1000l-0,-75c-0,-1.658 0.317,-3.252 0.951,-4.784c0.635,-1.531 1.538,-2.883 2.71,-4.055c1.172,-1.172 2.524,-2.075 4.055,-2.71c1.532,-0.634 3.126,-0.951 4.784,-0.951l168.75,-0c1.658,-0 3.252,0.317 4.783,0.951c1.532,0.635 2.884,1.538 4.056,2.71c1.172,1.172 2.075,2.524 2.709,4.055c0.635,1.532 0.952,3.126 0.952,4.784l-0,75c-0,1.658 -0.317,3.252 -0.952,4.783c-0.634,1.532 -1.537,2.884 -2.709,4.056c-1.172,1.172 -2.524,2.075 -4.056,2.709c-1.531,0.635 -3.125,0.952 -4.783,0.952l-168.75,-0c-1.658,-0 -3.252,-0.317 -4.784,-0.952c-1.531,-0.634 -2.883,-1.537 -4.055,-2.709c-1.172,-1.172 -2.075,-2.524 -2.71,-4.056c-0.634,-1.531 -0.951,-3.125 -0.951,-4.783Z" style="fill:#a3a3a3;fill-rule:nonzero;"/><path d="M1059.38,1000l-0,-75c-0,-1.658 0.317,-3.252 0.951,-4.784c0.635,-1.531 1.538,-2.883 2.71,-4.055c1.172,-1.172 2.524,-2.075 4.055,-2.71c1.532,-0.634 3.126,-0.951 4.784,-0.951l321.875,-0c1.657,-0 3.252,0.317 4.783,0.951c1.532,0.635 2.884,1.538 4.056,2.71c1.172,1.172 2.075,2.524 2.709,4.055c0.635,1.532 0.952,3.126 0.952,4.784l-0,75c-0,1.658 -0.317,3.252 -0.952,4.783c-0.634,1.532 -1.537,2.884 -2.709,4.056c-1.172,1.172 -2.524,2.075 -4.056,2.709c-1.531,0.635 -3.126,0.952 -4.783,0.952l-321.875,-0c-1.658,-0 -3.252,-0.317 -4.784,-0.952c-1.531,-0.634 -2.883,-1.537 -4.055,-2.709c-1.172,-1.172 -2.075,-2.524 -2.71,-4.056c-0.634,-1.531 -0.951,-3.125 -0.951,-4.783Z" style="fill:#a3a3a3;fill-rule:nonzero;"/><path d="M1578.12,1000l-0,-75c-0,-1.658 0.317,-3.252 0.951,-4.784c0.635,-1.531 1.538,-2.883 2.71,-4.055c1.172,-1.172 2.524,-2.075 4.055,-2.71c1.532,-0.634 3.126,-0.951 4.784,-0.951l556.25,-0c1.658,-0 3.252,0.317 4.783,0.951c1.532,0.635 2.884,1.538 4.056,2.71c1.172,1.172 2.075,2.524 2.709,4.055c0.635,1.532 0.952,3.126 0.952,4.784l-0,75c-0,1.658 -0.317,3.252 -0.952,4.783c-0.634,1.532 -1.537,2.884 -2.709,4.056c-1.172,1.172 -2.524,2.075 -4.056,2.709c-1.531,0.635 -3.125,0.952 -4.783,0.952l-556.25,-0c-1.658,-0 -3.252,-0.317 -4.784,-0.952c-1.531,-0.634 -2.883,-1.537 -4.055,-2.709c-1.172,-1.172 -2.075,-2.524 -2.71,-4.056c-0.634,-1.531 -0.951,-3.125 -0.951,-4.783Z" style="fill:#3b82f6;fill-rule:nonzero;"/><path d="M2185.94,987.5l0,-50c0,-1.539 0.151,-3.063 0.451,-4.573c0.3,-1.509 0.744,-2.975 1.333,-4.396c0.589,-1.422 1.311,-2.773 2.166,-4.052c0.855,-1.28 1.827,-2.464 2.915,-3.552c1.088,-1.088 2.272,-2.06 3.552,-2.915c1.279,-0.855 2.63,-1.577 4.052,-2.166c1.421,-0.588 2.887,-1.033 4.396,-1.333c1.51,-0.3 3.034,-0.451 4.573,-0.451l150,0c1.539,0 3.063,0.151 4.572,0.451c1.509,0.3 2.975,0.745 4.397,1.333c1.421,0.589 2.772,1.311 4.052,2.166c1.279,0.855 2.464,1.827 3.552,2.915c1.088,1.088 2.059,2.272 2.914,3.552c0.855,1.279 1.577,2.63 2.166,4.052c0.589,1.421 1.034,2.887 1.334,4.396c0.3,1.51 0.45,3.034 0.45,4.573l0,50c0,1.539 -0.15,3.063 -0.45,4.572c-0.3,1.51 -0.745,2.975 -1.334,4.397c-0.589,1.422 -1.311,2.772 -2.166,4.052c-0.855,1.28 -1.826,2.463 -2.914,3.552c-1.088,1.088 -2.273,2.059 -3.552,2.914c-1.28,0.855 -2.631,1.577 -4.052,2.166c-1.422,0.589 -2.888,1.034 -4.397,1.334c-1.509,0.3 -3.033,0.45 -4.572,0.45l-150,0c-1.539,0 -3.063,-0.15 -4.573,-0.45c-1.509,-0.3 -2.975,-0.745 -4.396,-1.334c-1.422,-0.589 -2.773,-1.311 -4.052,-2.166c-1.28,-0.855 -2.464,-1.826 -3.552,-2.914c-1.088,-1.089 -2.06,-2.272 -2.915,-3.552c-0.855,-1.28 -1.577,-2.63 -2.166,-4.052c-0.589,-1.422 -1.033,-2.887 -1.333,-4.397c-0.3,-1.509 -0.451,-3.033 -0.451,-4.572Z" style="fill:#f9fafb;fill-rule:nonzero;stroke:#d1d5db;stroke-width:3.12px;"/><path d="M100,1862.5l-0,-737.5c-0,-1.658 0.317,-3.252 0.952,-4.784c0.634,-1.531 1.537,-2.883 2.709,-4.055c1.172,-1.172 2.524,-2.075 4.055,-2.71c1.532,-0.634 3.126,-0.951 4.784,-0.951l2259.38,-0c1.657,-0 3.252,0.317 4.783,0.951c1.532,0.635 2.883,1.538 4.056,2.71c1.172,1.172 2.075,2.524 2.709,4.055c0.635,1.532 0.952,3.126 0.952,4.784l-0,737.5c-0,1.657 -0.317,3.252 -0.952,4.783c-0.634,1.532 -1.537,2.883 -2.709,4.056c-1.173,1.172 -2.524,2.075 -4.056,2.709c-1.531,0.635 -3.126,0.952 -4.783,0.952l-2259.38,-0c-1.658,-0 -3.252,-0.317 -4.784,-0.952c-1.531,-0.634 -2.883,-1.537 -4.055,-2.709c-1.172,-1.173 -2.075,-2.524 -2.709,-4.056c-0.635,-1.531 -0.952,-3.126 -0.952,-4.783Z" style="fill:#fff;fill-rule:nonzero;"/><path d="M150,1275l-0,-100c-0,-1.658 0.317,-3.252 0.951,-4.784c0.635,-1.531 1.538,-2.883 2.71,-4.055c1.172,-1.172 2.524,-2.075 4.055,-2.71c1.532,-0.634 3.126,-0.951 4.784,-0.951l100,-0c1.658,-0 3.252,0.317 4.784,0.951c1.531,0.635 2.883,1.538 4.055,2.71c1.172,1.172 2.075,2.524 2.709,4.055c0.635,1.532 0.952,3.126 0.952,4.784l-0,100c-0,1.657 -0.317,3.252 -0.952,4.783c-0.634,1.532 -1.537,2.884 -2.709,4.056c-1.172,1.172 -2.524,2.075 -4.055,2.709c-1.532,0.635 -3.126,0.952 -4.784,0.952l-100,-0c-1.658,-0 -3.252,-0.317 -4.784,-0.952c-1.531,-0.634 -2.883,-1.537 -4.055,-2.709c-1.172,-1.172 -2.075,-2.524 -2.71,-4.056c-0.634,-1.531 -0.951,-3.126 -0.951,-4.783Z" style="fill:#3b82f6;fill-rule:nonzero;"/><path d="M1643.75,1787.5l-0,-75c-0,-1.658 0.317,-3.252 0.951,-4.784c0.635,-1.531 1.538,-2.883 2.71,-4.055c1.172,-1.172 2.524,-2.075 4.055,-2.71c1.532,-0.634 3.126,-0.951 4.784,-0.951l346.875,-0c1.657,-0 3.252,0.317 4.783,0.951c1.532,0.635 2.884,1.538 4.056,2.71c1.172,1.172 2.075,2.524 2.709,4.055c0.635,1.532 0.952,3.126 0.952,4.784l-0,75c-0,1.657 -0.317,3.252 -0.952,4.783c-0.634,1.532 -1.537,2.883 -2.709,4.056c-1.172,1.172 -2.524,2.075 -4.056,2.709c-1.531,0.635 -3.126,0.952 -4.783,0.952l-346.875,-0c-1.658,-0 -3.252,-0.317 -4.784,-0.952c-1.531,-0.634 -2.883,-1.537 -4.055,-2.709c-1.172,-1.173 -2.075,-2.524 -2.71,-4.056c-0.634,-1.531 -0.951,-3.126 -0.951,-4.783Z" style="fill:#22c55e;fill-rule:nonzero;"/><path d="M2021.88,1250l-0,-75c-0,-1.658 0.317,-3.252 0.951,-4.784c0.634,-1.531 1.538,-2.883 2.71,-4.055c1.172,-1.172 2.523,-2.075 4.055,-2.71c1.532,-0.634 3.126,-0.951 4.784,-0.951l287.5,-0c1.657,-0 3.252,0.317 4.783,0.951c1.532,0.635 2.883,1.538 4.056,2.71c1.172,1.172 2.075,2.524 2.709,4.055c0.634,1.532 0.952,3.126 0.952,4.784l-0,75c-0,1.657 -0.318,3.252 -0.952,4.783c-0.634,1.532 -1.537,2.884 -2.709,4.056c-1.173,1.172 -2.524,2.075 -4.056,2.709c-1.531,0.635 -3.126,0.952 -4.783,0.952l-287.5,-0c-1.658,-0 -3.252,-0.317 -4.784,-0.952c-1.532,-0.634 -2.883,-1.537 -4.055,-2.709c-1.172,-1.172 -2.076,-2.524 -2.71,-4.056c-0.634,-1.531 -0.951,-3.126 -0.951,-4.783Z" style="fill:#3b82f6;fill-rule:nonzero;"/><path d="M2023.44,1381.25l0,-81.25c0,-1.451 0.278,-2.846 0.833,-4.186c0.555,-1.34 1.345,-2.523 2.371,-3.548c1.025,-1.026 2.208,-1.816 3.548,-2.371c1.34,-0.555 2.735,-0.833 4.186,-0.833l287.5,0c1.45,0 2.845,0.278 4.185,0.833c1.34,0.555 2.523,1.345 3.549,2.371c1.025,1.025 1.815,2.208 2.37,3.548c0.556,1.34 0.833,2.735 0.833,4.186l0,81.25c0,1.45 -0.277,2.845 -0.833,4.185c-0.555,1.34 -1.345,2.523 -2.37,3.549c-1.026,1.025 -2.209,1.816 -3.549,2.371c-1.34,0.555 -2.735,0.832 -4.185,0.832l-287.5,0c-1.451,0 -2.846,-0.277 -4.186,-0.832c-1.34,-0.555 -2.523,-1.346 -3.548,-2.371c-1.026,-1.026 -1.816,-2.209 -2.371,-3.549c-0.555,-1.34 -0.833,-2.735 -0.833,-4.185Z" style="fill:none;fill-rule:nonzero;stroke:#3b82f6;stroke-width:3.12px;"/><text x="100px" y="125px" style="font-family:'Consolas', monospace;font-size:62.5px;">I<tspan x="137.31px 174.619px 211.929px 249.239px 286.548px 323.858px 361.168px 398.477px 435.787px 477.063px 514.372px 551.682px 588.992px 626.301px 663.611px 700.921px 738.23px " y="125px 125px 125px 125px 125px 125px 125px 125px 125px 125px 125px 125px 125px 125px 125px 125px 125px ">maginary Products</tspan></text><text x="1571.78px" y="125px" style="font-family:'Consolas', monospace;font-size:62.5px;fill:#3b82f6;">D</text><text x="1609.28px" y="125px" style="font-family:'Consolas', monospace;font-size:62.5px;fill:#3b82f6;">a</text><text x="1646.79px" y="125px" style="font-family:'Consolas', monospace;font-size:62.5px;fill:#3b82f6;">s</text><text x="1684.3px" y="125px" style="font-family:'Consolas', monospace;font-size:62.5px;fill:#3b82f6;">h</text><text x="1721.8px" y="125px" style="font-family:'Consolas', monospace;font-size:62.5px;fill:#3b82f6;">b</text><text x="1759.31px" y="125px" style="font-family:'Consolas', monospace;font-size:62.5px;fill:#3b82f6;">o</text><text x="1796.81px" y="125px" style="font-family:'Consolas', monospace;font-size:62.5px;fill:#3b82f6;">a</text><text x="1834.32px" y="125px" style="font-family:'Consolas', monospace;font-size:62.5px;fill:#3b82f6;">r</text><text x="1871.83px" y="125px" style="font-family:'Consolas', monospace;font-size:62.5px;fill:#3b82f6;">d</text><g><clipPath id="_clip2"><path d="M2009.38,100c-0,-8.288 1.586,-16.261 4.757,-23.918c3.172,-7.657 7.688,-14.416 13.549,-20.276c5.86,-5.861 12.619,-10.377 20.276,-13.548c7.657,-3.172 15.63,-4.758 23.918,-4.758l250,-0c8.288,-0 16.26,1.586 23.917,4.758c7.657,3.171 14.416,7.687 20.277,13.548c5.86,5.86 10.377,12.619 13.548,20.276c3.172,7.657 4.758,15.63 4.758,23.918c-0,8.288 -1.586,16.261 -4.758,23.918c-3.171,7.657 -7.688,14.416 -13.548,20.276c-5.861,5.861 -12.62,10.377 -20.277,13.548c-7.657,3.172 -15.629,4.758 -23.917,4.758l-250,-0c-8.288,-0 -16.261,-1.586 -23.918,-4.758c-7.657,-3.171 -14.416,-7.687 -20.276,-13.548c-5.861,-5.86 -10.377,-12.619 -13.549,-20.276c-3.171,-7.657 -4.757,-15.63 -4.757,-23.918Z" clip-rule="nonzero"/></clipPath><g clip-path="url(#_clip2)"><text x="2106.84px" y="118.75px" style="font-family:'Consolas', monospace;font-size:50px;fill:#fff;">L<tspan x="2136.84px 2166.85px 2196.85px 2226.86px 2256.86px " y="118.75px 118.75px 118.75px 118.75px 118.75px ">ogout</tspan></text></g></g><text x="100px" y="406.25px" style="font-family:'Consolas', monospace;font-size:112.5px;fill:#3b82f6;">D</text><text x="167.511px" y="406.25px" style="font-family:'Consolas', monospace;font-size:112.5px;fill:#3b82f6;">a</text><text x="235.022px" y="406.25px" style="font-family:'Consolas', monospace;font-size:112.5px;fill:#3b82f6;">s</text><text x="302.533px" y="406.25px" style="font-family:'Consolas', monospace;font-size:112.5px;fill:#3b82f6;">h</text><text x="370.044px" y="406.25px" style="font-family:'Consolas', monospace;font-size:112.5px;fill:#3b82f6;">b</text><text x="437.555px" y="406.25px" style="font-family:'Consolas', monospace;font-size:112.5px;fill:#3b82f6;">o</text><text x="505.066px" y="406.25px" style="font-family:'Consolas', monospace;font-size:112.5px;fill:#3b82f6;">a</text><text x="572.577px" y="406.25px" style="font-family:'Consolas', monospace;font-size:112.5px;fill:#3b82f6;">r</text><text x="640.088px" y="406.25px" style="font-family:'Consolas', monospace;font-size:112.5px;fill:#3b82f6;">d</text><text x="720.117px" y="406.25px" style="font-family:'Consolas', monospace;font-size:50px;fill:#737373;">A<tspan x="750.122px 780.127px 810.132px 840.137px " y="406.25px 406.25px 406.25px 406.25px ">dmin</tspan></text><g transform="matrix(4.16667,0,0,4.16667,0,0)"><text x="54.141px" y="154.5px" style="font-family:'Consolas', monospace;font-size:12px;">1</text><text x="39.738px" y="181.5px" style="font-family:'Consolas', monospace;font-size:12px;fill:#fff;">P<tspan x="46.939px 54.141px 61.342px 68.543px " y="181.5px 181.5px 181.5px 181.5px ">ages</tspan></text></g><g transform="matrix(4.16667,0,0,4.16667,0,0)"><text x="133.641px" y="154.5px" style="font-family:'Consolas', monospace;font-size:12px;">1</text><text x="108.445px" y="181.5px" style="font-family:'Consolas', monospace;font-size:12px;fill:#fff;">P<tspan x="115.646px 122.848px 130.049px 137.25px 144.451px 151.652px 158.854px " y="181.5px 181.5px 181.5px 181.5px 181.5px 181.5px 181.5px ">roducts</tspan></text></g><text x="137.5px" y="981.25px" style="font-family:'Consolas', monospace;font-size:50px;fill:#fff;">F<tspan x="167.191px 196.881px 226.572px 256.262px 285.953px 318.965px 348.655px 378.346px 408.036px " y="981.25px 981.25px 981.25px 981.25px 981.25px 981.25px 981.25px 981.25px 981.25px ">irst page</tspan></text><text x="537.549px" y="981.25px" style="font-family:'Consolas', monospace;font-size:50px;fill:#fff;">P<tspan x="567.554px 597.559px 627.563px 657.568px 687.573px 717.578px 747.583px " y="981.25px 981.25px 981.25px 981.25px 981.25px 981.25px 981.25px ">revious</tspan></text><text x="877.588px" y="981.25px" style="font-family:'Consolas', monospace;font-size:50px;fill:#fff;">N<tspan x="907.593px 937.598px 967.603px " y="981.25px 981.25px 981.25px ">ext</tspan></text><text x="1097.61px" y="981.25px" style="font-family:'Consolas', monospace;font-size:50px;fill:#fff;">L<tspan x="1127.25px 1156.9px 1186.54px 1216.19px 1249.2px 1278.84px 1308.49px 1338.13px " y="981.25px 981.25px 981.25px 981.25px 981.25px 981.25px 981.25px 981.25px ">ast page</tspan></text><g transform="matrix(4.16667,0,0,4.16667,0,0)"><text x="391.031px" y="235.5px" style="font-family:'Consolas', monospace;font-size:12px;fill:#fff;">C<tspan x="398.14px 405.248px 412.356px 419.465px 426.573px 433.681px 441.603px " y="235.5px 235.5px 235.5px 235.5px 235.5px 235.5px 235.5px ">reate a</tspan></text><text x="455.842px" y="235.5px" style="font-family:'Consolas', monospace;font-size:12px;fill:#fff;">p<tspan x="462.95px 470.058px 477.167px 484.275px 491.383px 498.492px " y="235.5px 235.5px 235.5px 235.5px 235.5px 235.5px ">roduct</tspan></text></g><clipPath id="_clip3"><path d="M2187.5,987.5l-0,-50c-0,-2.901 0.555,-5.691 1.665,-8.371c1.11,-2.68 2.69,-5.046 4.742,-7.097c2.051,-2.051 4.416,-3.632 7.096,-4.742c2.68,-1.11 5.471,-1.665 8.372,-1.665l150,-0c2.901,-0 5.691,0.555 8.371,1.665c2.68,1.11 5.045,2.691 7.097,4.742c2.051,2.051 3.631,4.417 4.741,7.097c1.111,2.68 1.666,5.47 1.666,8.371l-0,50c-0,2.901 -0.555,5.691 -1.666,8.371c-1.11,2.68 -2.69,5.046 -4.741,7.097c-2.052,2.051 -4.417,3.632 -7.097,4.742c-2.68,1.11 -5.47,1.665 -8.371,1.665l-150,-0c-2.901,-0 -5.692,-0.555 -8.372,-1.665c-2.68,-1.11 -5.045,-2.691 -7.096,-4.742c-2.052,-2.051 -3.632,-4.417 -4.742,-7.097c-1.11,-2.68 -1.665,-5.47 -1.665,-8.371Z" clip-rule="nonzero"/></clipPath><g clip-path="url(#_clip3)"><text x="2212.5px" y="981.25px" style="font-family:'Consolas', monospace;font-size:43.75px;fill:#9ca3af;">1</text></g><g transform="matrix(4.16667,0,0,4.16667,0,0)"><text x="84px" y="295.5px" style="font-family:'Consolas', monospace;font-size:15px;">C<tspan x="92.903px 101.806px 110.709px 119.612px 128.515px 137.418px 146.321px 155.225px 164.128px 174.031px 182.934px 191.837px 200.74px 209.643px 218.546px 227.449px 237.352px 246.256px 255.159px 264.062px 272.965px 281.868px " y="295.5px 295.5px 295.5px 295.5px 295.5px 295.5px 295.5px 295.5px 295.5px 295.5px 295.5px 295.5px 295.5px 295.5px 295.5px 295.5px 295.5px 295.5px 295.5px 295.5px 295.5px 295.5px ">elestial Aurora Nimbus</tspan></text><text x="300.035px" y="295.5px" style="font-family:'Consolas', monospace;font-size:15px;">X<tspan x="308.938px 317.841px " y="295.5px 295.5px ">IX</tspan></text><text x="84px" y="325.5px" style="font-family:'Consolas', monospace;font-size:12px;">I<tspan x="91.185px 98.371px " y="325.5px 325.5px ">D:</tspan></text><text x="112.805px" y="325.5px" style="font-family:'Consolas', monospace;font-size:12px;">e<tspan x="119.99px 127.175px 134.361px 141.546px 148.731px 155.916px 163.102px 170.287px 177.472px 184.658px 191.843px 199.028px 206.213px 213.399px 220.584px 227.769px 234.955px 242.14px 249.325px 256.51px 263.696px 270.881px 278.066px 285.252px 292.437px 299.622px 306.808px 313.993px 321.178px 328.363px 335.549px 342.734px 349.919px 357.105px 364.29px " y="325.5px 325.5px 325.5px 325.5px 325.5px 325.5px 325.5px 325.5px 325.5px 325.5px 325.5px 325.5px 325.5px 325.5px 325.5px 325.5px 325.5px 325.5px 325.5px 325.5px 325.5px 325.5px 325.5px 325.5px 325.5px 325.5px 325.5px 325.5px 325.5px 325.5px 325.5px 325.5px 325.5px 325.5px 325.5px ">a26f0da-20c1-4719-a524-4ffa88a50784</tspan></text><text x="84px" y="343.5px" style="font-family:'Consolas', monospace;font-size:12px;">M<tspan x="91.171px 98.342px 105.513px 112.684px 119.855px 127.026px 134.197px 141.368px 148.539px 155.71px 162.881px 170.052px 177.223px 185.148px 192.319px 199.49px 206.661px 213.832px 221.003px 228.174px 235.345px " y="343.5px 343.5px 343.5px 343.5px 343.5px 343.5px 343.5px 343.5px 343.5px 343.5px 343.5px 343.5px 343.5px 343.5px 343.5px 343.5px 343.5px 343.5px 343.5px 343.5px 343.5px ">anufacturer: Solstice</tspan></text><text x="84px" y="361.5px" style="font-family:'Consolas', monospace;font-size:12px;">M<tspan x="91.156px 98.313px 105.469px 112.626px 119.782px 126.939px 134.095px 141.252px 148.408px 155.565px 162.721px 169.878px 177.034px 184.959px 192.115px 199.272px 206.428px 213.585px " y="361.5px 361.5px 361.5px 361.5px 361.5px 361.5px 361.5px 361.5px 361.5px 361.5px 361.5px 361.5px 361.5px 361.5px 361.5px 361.5px 361.5px 361.5px ">anufacturing date:</tspan></text><text x="228.023px" y="361.5px" style="font-family:'Consolas', monospace;font-size:12px;">2<tspan x="235.18px 242.336px 249.493px 256.649px 263.806px 270.962px 278.119px 285.275px 292.432px " y="361.5px 361.5px 361.5px 361.5px 361.5px 361.5px 361.5px 361.5px 361.5px ">023-11-04</tspan></text><text x="84px" y="379.5px" style="font-family:'Consolas', monospace;font-size:12px;">A<tspan x="91.149px 98.299px 105.448px 112.598px 119.747px 126.897px 134.046px 141.196px 148.345px 155.494px 162.644px 170.568px 177.718px 184.867px 192.016px 199.166px " y="379.5px 379.5px 379.5px 379.5px 379.5px 379.5px 379.5px 379.5px 379.5px 379.5px 379.5px 379.5px 379.5px 379.5px 379.5px 379.5px ">cquisition date:</tspan></text><text x="213.621px" y="379.5px" style="font-family:'Consolas', monospace;font-size:12px;">2<tspan x="220.771px 227.92px 235.069px 242.219px 249.368px 256.518px 263.667px 270.817px 277.966px 285.116px 293.04px 300.189px 307.339px 314.488px 321.638px 328.787px 335.936px 343.086px 350.235px 357.385px " y="379.5px 379.5px 379.5px 379.5px 379.5px 379.5px 379.5px 379.5px 379.5px 379.5px 379.5px 379.5px 379.5px 379.5px 379.5px 379.5px 379.5px 379.5px 379.5px 379.5px ">023-12-18 19:26:10.0</tspan></text><text x="84px" y="424.5px" style="font-family:'Consolas', monospace;font-size:12px;">P<tspan x="91.132px 98.264px 105.397px 112.529px 119.661px 126.793px 134.716px 141.849px 148.981px 156.113px 163.245px 170.377px 177.51px 184.642px 191.774px 198.906px 206.038px 218.425px 225.557px 232.689px 239.822px 246.954px 254.086px 261.218px 268.35px 275.483px 282.615px 290.538px 297.67px 304.802px 311.935px 319.067px 331.242px 338.375px 345.507px 352.639px 359.771px 366.903px 374.036px " y="424.5px 424.5px 424.5px 424.5px 424.5px 424.5px 424.5px 424.5px 424.5px 424.5px 424.5px 424.5px 424.5px 424.5px 424.5px 424.5px 424.5px 424.5px 424.5px 424.5px 424.5px 424.5px 424.5px 424.5px 424.5px 424.5px 424.5px 424.5px 424.5px 424.5px 424.5px 424.5px 424.5px 424.5px 424.5px 424.5px 424.5px 424.5px 424.5px ">rice: 673987.08$	Quantity: 6000	Status:</tspan></text></g><text x="1695.22px" y="1768.75px" style="font-family:'Consolas', monospace;font-size:50px;fill:#fff;">A<tspan x="1725.22px 1755.23px 1785.23px 1815.23px 1845.24px 1875.24px 1905.25px 1935.25px " y="1768.75px 1768.75px 1768.75px 1768.75px 1768.75px 1768.75px 1768.75px 1768.75px ">VAILABLE</tspan></text><g transform="matrix(4.16667,0,0,4.16667,0,0)"><text x="501.141px" y="295.5px" style="font-family:'Consolas', monospace;font-size:12px;fill:#fff;">U<tspan x="508.342px 515.543px 522.744px 529.945px 537.146px " y="295.5px 295.5px 295.5px 295.5px 295.5px ">pdate</tspan></text><text x="501.141px" y="326.25px" style="font-family:'Consolas', monospace;font-size:12px;fill:#3b82f6;">D<tspan x="508.342px 515.543px 522.744px 529.945px 537.146px " y="326.25px 326.25px 326.25px 326.25px 326.25px ">elete</tspan></text></g></g></g></svg>